<svg height="356" preserveAspectRatio="xMidYMid" viewBox="0 0 356 356" width="356" xmlns="http://www.w3.org/3000/svg"><path d="m127.975926 0c-11.396494 27.9359185-18.270407 46.3092913-40.9588111 73.31478 7.7796421 8.2448675 17.3287851 17.8464276 32.8365621 28.690485-16.672381-6.8592918-28.044985-13.7458585-36.5439159-30.8930645-16.2388643 33.8785155-41.6804954 82.1369535-93.4097611 174.8867995 40.5788694-23.422481 72.0348875-37.862691 101.350386-43.372697-1.35882-5.413143-1.9745082-11.268513-1.9358985-17.377961l.0481474-1.299737c.6438921-35.992917 14.1679311-45.981474 40.1884521-44.624295 16.030529 1.35718 28.473109 23.541479 27.829227 49.534412-.1211 4.891046-.672893 9.596178-1.637013 13.960135 28.997215 5.671404 60.116877 30.074544 100.146699 43.180143-7.893101-14.529016-14.938375-27.635864-21.666353-40.099285-10.597663-8.21235-21.651547-18.900753-44.199361-40.471606 15.498072 4.026295 26.594495 8.671566 35.243935 13.863858-68.405249-127.3346716-73.94461-144.3548309-97.402295-199.292967z" fill="#1793d1"/></svg>