<svg fill="none" height="32" viewBox="0 0 32 32" width="32" xmlns="http://www.w3.org/3000/svg"><path d="m2 2h28v28h-28z" fill="#ffca28"/><g fill="#3e3e3e"><path d="m19 35.2879 2.0615-1.3642c.1616.5076 1.1847 1.7131 2.477 1.7131s1.8923-.7058 1.8923-1.1738c0-1.2752-1.3196-1.7248-1.9534-1.9407-.1034-.0352-.1884-.0642-.2466-.0895-.0299-.013-.075-.0403-.1329-.0524-.7049-.2693-3.4056-1.2629-3.4056-4.1431 0-3.1723 3.0615-3.5371 3.7539-3.5371.4529 0 2.6407.0555 3.7153 2.0937l-2 1.3959c-.4384-.8883-1.1669-1.1817-1.6153-1.1817-1.1077 0-1.3385.812-1.3385 1.1817 0 1.0372 1.3035 1.5021 2.2196 1.8946.2659.1027.5189.3004.7342.4022 1.1077.5234 2.7385 1.38 2.7385 4.0764 0 1.3506-1.1328 3.5372-3.9846 3.5372-3.8408 0-4.8462-2.2999-5.0154-2.7123z"/><path d="m9 35.5587 2.1487-1.3634c.1683.5073.8226 1.4427 1.7718 1.4427.9493 0 1.4352-.975 1.4352-1.4427v-9.1951h2.6435v9.1951c.0428 1.2683-.6606 3.8049-3.765 3.8049-2.8542 0-4.04078-1.6963-4.2332-2.4415z"/></g></svg>