<svg height="295" preserveAspectRatio="xMidYMid" viewBox="0 0 356 295" width="356" xmlns="http://www.w3.org/3000/svg" xmlns:xlink="http://www.w3.org/1999/xlink"><filter id="a" height="300%" width="300%" x="-50%" y="-50%"><feOffset dx="0" dy="0" in="SourceAlpha" result="shadowOffsetOuter1"/><feGaussianBlur in="shadowOffsetOuter1" result="shadowBlurOuter1" stdDeviation="6.5"/></filter><linearGradient id="b"><stop offset="0" stop-color="#ffeed7"/><stop offset="1" stop-color="#bdbfc2"/></linearGradient><linearGradient id="c" x1="48.547741%" x2="51.04738%" xlink:href="#b" y1="115.276174%" y2="41.363724%"/><linearGradient id="d"><stop offset="0" stop-color="#fff" stop-opacity=".8"/><stop offset="1" stop-color="#fff" stop-opacity="0"/></linearGradient><linearGradient id="e" x1="54.406546%" x2="46.175396%" xlink:href="#d" y1="2.404105%" y2="90.542235%"/><linearGradient id="f" x1="51.859653%" x2="47.94694%" xlink:href="#b" y1="88.247748%" y2="9.747821%"/><linearGradient id="g" x1="49.93511%" x2="49.923684%" xlink:href="#b" y1="85.490017%" y2="13.810927%"/><linearGradient id="h"><stop offset="0" stop-color="#fff" stop-opacity=".65"/><stop offset="1" stop-color="#fff" stop-opacity="0"/></linearGradient><linearGradient id="i" x1="53.901407%" x2="45.955535%" xlink:href="#h" y1="3.101776%" y2="93.894957%"/><linearGradient id="j" x1="45.592876%" x2="54.811359%" xlink:href="#h" y1="5.474591%" y2="93.523516%"/><linearGradient id="k" x1="49.984499%" x2="49.984499%" xlink:href="#b" y1="89.845244%" y2="40.631686%"/><linearGradient id="l" x1="53.504713%" x2="42.745597%" xlink:href="#b" y1="99.97524%" y2="23.545172%"/><linearGradient id="m" x1="49.841336%" x2="50.241261%" xlink:href="#d" y1="13.228956%" y2="94.672969%"/><linearGradient id="n" x1="49.92723%" x2="50.727045%" xlink:href="#h" y1="37.327034%" y2="92.782474%"/><linearGradient id="o" x1="49.87556%" x2="49.87556%" xlink:href="#h" y1="2.299006%" y2="81.303617%"/><linearGradient id="p" x1="49.833439%" x2="49.82404%" xlink:href="#h" y1="2.271891%" y2="71.798962%"/><linearGradient id="q"><stop offset="0" stop-color="#ffa63f"/><stop offset="1" stop-color="#ff0"/></linearGradient><linearGradient id="r" x1="53.467068%" x2="38.948871%" xlink:href="#q" y1="48.921386%" y2="98.099978%"/><linearGradient id="s" x1="52.373151%" x2="47.57909%" xlink:href="#b" y1="143.008909%" y2="-64.621539%"/><linearGradient id="t" x1="40.580815%" x2="65.886702%" xlink:href="#q" y1="34.024108%" y2="89.175349%"/><linearGradient id="u" x1="59.571509%" x2="48.360852%" xlink:href="#h" y1="-17.215521%" y2="66.118447%"/><linearGradient id="v" x1="47.768955%" x2="51.373403%" xlink:href="#h" y1="1.564813%" y2="104.312856%"/><linearGradient id="w" x1="43.549563%" x2="57.114329%" xlink:href="#h" y1="4.533486%" y2="92.826717%"/><linearGradient id="x" x1="49.732804%" x2="50.558249%" xlink:href="#q" y1="17.608522%" y2="99.385467%"/><linearGradient id="y" x1="50.169722%" x2="49.680236%" xlink:href="#h" y1="2.890485%" y2="94.170428%"/><g fill="none" transform="translate(10)"><path d="m235.135423 249.358628c0 17.355643-52.617899 31.497277-117.540856 31.497277-64.9229577 0-117.54085649-14.049806-117.54085649-31.497277 0-17.355642 52.61789879-31.497276 117.54085649-31.497276 64.922957 0 117.449027 14.141634 117.540856 31.497276z" fill="#000" fill-opacity=".2" filter="url(#a)"/><path d="m53.2135821 215.473804c-11.3867704-16.345526-13.5906615-69.606226 12.9478599-102.389105 13.1315175-15.7027242 16.5291829-26.6403507 17.5392996-41.4147865.7346404-16.8046692-11.8459144-66.85136184 35.5377434-70.61634238 48.026459-3.85680934 45.363424 43.52684828 45.087938 68.59610898-.183658 21.1306235 15.519066 33.1501949 26.354863 49.6793769 19.926849 40.403502 18.27393 82.462357-3.76498 110.745526-27.915953 35.354085-51.79144 30.018677-67.677821 21.40428-29.7535294 1.744747-40.7626461 17.5393-66.0249029-35.905058z" fill="#000"/><path d="m169.10052 122.451235c8.264591 7.62179 29.6607 41.690273-4.224135 62.994553-11.937743 7.438132 10.65214 35.721401 21.487938 22.038911 19.192218-24.610117 6.978988-63.912841-4.59144-77.962646-7.713618-9.91751-19.651361-13.774319-12.672373-7.070818z" fill="url(#c)"/><path d="m166.8048 117.859796c13.590661 11.019455 38.292607 49.587548 2.303891 74.748638-11.845914 7.805447 10.468483 32.507393 23.049027 19.926848 43.618677-43.894163-1.101945-94.408171-16.529183-111.663813-13.774319-15.151751-35.987548 3.489494-8.723735 16.988327z" fill="#000" stroke="#000" stroke-width=".9773"/><path d="m147.245267 35.0308853c-.459144 12.5805447-14.335292 23.5081712-40.946404 24.5182879-16.6210112 1.0101168-29.6607-8.5400778-29.301556-21.1306235.459144-12.5805448 14.335292-23.50817124 40.946404-24.51828798 16.621011-.91828793 29.6607 8.54007778 29.301556 21.13062358z" fill="url(#e)"/><path d="m107.483399 54.9570721c.459144 8.1727626-3.397665 15.0599221-8.7237352 15.3354085-5.32607.2754864-10.0093385-6.0607004-10.4684835-14.233463-.4591439-8.1727627 3.3976654-15.0599222 8.7237354-15.3354086 5.3260703-.2754864 10.0093383 6.0607004 10.4684823 14.2334631z" fill="url(#f)"/><path d="m117.135423 55.5998736c.183657 9.4583658 6.336186 16.9883269 13.68249 16.8046693 7.346403-.1836576 13.131517-7.9891051 12.94786-17.5392996-.183658-9.4583658-6.336187-16.9883269-13.682491-16.8046693-7.346403.1836576-13.223346 8.0809339-12.947859 17.5392996z" fill="url(#g)"/><path d="m123.186123 57.7119359c-.091829 5.2342412 2.479377 9.4583657 5.877043 9.4583657 3.405836 0 6.153529-4.2241245 6.244358-9.3665369.091829-5.2342413-2.479378-9.4583658-5.877043-9.4583658s-6.153529 4.2241245-6.244358 9.366537z" fill="#000"/><path d="m101.973672 57.8037647c.459144 4.3159533-1.193775 7.989105-3.5813234 8.3564302-2.3875486.2754864-4.6832684-2.9385214-5.1424124-7.3544747-.459144-4.3159533 1.1937743-7.9891051 3.5813229-8.3564302 2.3875487-.2754864 4.6832689 2.9385214 5.1424129 7.3544747z" fill="#000"/><path d="m124.563555 54.7734145c-.275487 2.9385214 1.101945 5.32607 3.04035 5.5097276s3.764981-2.1130623 4.040467-4.9587549c.275486-2.9385214-1.101946-5.32607-3.04035-5.5097276-1.928405-.1836576-3.764981 2.1130623-4.040467 4.9587549z" fill="url(#i)"/><path d="m99.9534381 55.5080448c.2754869 2.3875487-.7346403 4.4996109-2.303891 4.6832685s-2.8466926-1.6529183-3.122179-4.1322957c-.2754864-2.3875487.7346403-4.4996109 2.303891-4.6832685s2.8466927 1.7447471 3.122179 4.1322957z" fill="url(#j)"/><path d="m71.0273681 145.68392c6.5198444-14.784435 30.3859922-40.771984 30.6614786-60.88249 0-15.9782101 47.8428013-19.8350194 51.6996113-3.8568093 3.856809 15.9782101 13.590661 39.8536963 19.835019 51.4241243 6.244358 11.478599 24.33463 48.118288 5.050584 80.074708-17.355642 28.283269-69.9735412 50.689495-98.0731521-3.856809-9.5501945-18.916731-7.8054474-42.334074.8264592-62.902724z" fill="url(#k)"/><path d="m65.1503353 134.664465c-5.6015564 10.560311-17.1719844 38.292607 11.111284 53.444358 40.3953407 16.161868 40.4035017 49.313062-6.2443579 33.51751-33.435681-14.233463-18.6412452-71.901946-9.2747082-85.676265 6.0607004-9.643023 15.2435798-21.487938 4.4077821-1.285603z" fill="url(#l)"/><path d="m69.9354226 122.726722c-8.907393 14.508949-40.2116732 48.669261-1.6529183 66.484047 38.3844357 23.6 27.5486381 47.108171-7.5299611 35.895719-49.4038911-29.568871-5.9688716-89.357587 13.7743191-112.031128 22.5898832-35.5284047 4.3159533 4.683268-4.5914397 19.651362z" fill="#000" stroke="#000" stroke-width="1.35"/><path d="m156.428146 151.285477c0 16.161867-15.519066 37.098832-42.149416 36.915175-27.4568094.183657-39.1190662-30.753408-39.1190662-36.915175 0-16.161868 18.1821012-29.293385 40.5883272-29.293385 22.498054.091828 40.680155 13.131517 40.680155 29.293385z" fill="url(#m)"/><path d="m141.919197 100.504154c-.275486 16.71284-11.303113 30.661478-24.977432 30.661478s-23.7836576-2.479377-24.9774319-30.661478c0-11.3867707 11.3031129-17.9984438 24.9774319-17.9984438 13.774319-.0918288 24.977432 6.5198444 24.977432 17.9984438z" fill="url(#n)"/><path d="m58.6404809 126.216216c8.9992218-13.68249 28.0077821-34.711284 3.581323 2.938521-19.8350195 31.038133-7.3464035 50.964981-.9182879 56.474709 18.5494163 16.529182 17.8147859 27.640467 3.2140077 18.916731-31.3136186-18.641245-24.7937743-50.046692-5.8770428-78.329961z" fill="url(#o)"/><path d="m188.935539 131.817772c-7.805447-16.070038-32.599221-56.8430229 1.193775-9.458365 40.762646 42.884046 9.182879 72.728404 5.32607 75.666926-3.85681 2.938521-16.80467 8.907393-13.039689-1.469261 3.856809-10.376654 22.957198-40.028016 6.519844-64.7393z" fill="url(#p)"/><path d="m51.8351502 358.541508c-30.5696498-10.927627-50.41400779 2.113062-39.5782101-27.456809 2.303891-6.703502-3.2140078-16.80467.2754864-23.324514 4.1322957-7.989105 13.0396887-6.244358 18.3657587-11.570428 5.2342413-5.509728 8.5400778-15.059922 18.3657588-13.590662 9.7338521 1.469261 16.3536965 13.407004 23.0490272 28.099611 5.0505837 10.468483 22.8653697 35.352919 21.6715953 37.007004-1.4692607 17.998444-21.9470817 21.396109-42.1494163 10.835798z" fill="url(#r)" stroke="#e68c3f" stroke-width="6.35"/><path d="m301.607913 189.11894c-3.122179 5.877043-16.161868 15.335408-24.885603 12.856031-8.815564-2.387549-12.856031-15.794553-11.111284-35.987549 1.652918-11.38677 11.111284-12.029572 23.049027-6.336187 12.856031 6.336187 16.71284 11.662357 12.94786 19.467705z" fill="url(#s)"/><path d="m194.445267 353.490924c15.059922-18.27393 48.577432-14.508949 35.987549-39.57821-4.775098-5.417899-3.405837-16.988327-9.18288-21.947082-6.887159-6.0607-14.508949-1.101945-21.487938-4.224124-6.978988-3.397666-14.335291-9.91751-22.865369-5.32607-8.540078 4.683268-9.458366 16.804669-10.284835 32.782879-.73463 11.478599-11.303113 40.670817-5.601557 41.231129 8.080934 16.345535 29.109728 14.141634 43.43502-2.938522z" fill="url(#t)" stroke="#e68c3f" stroke-width="6.3507"/><path d="m187.935423 229.064465c23.324513-34.435798 5.968871-34.160311.091828-36.823346-5.877042-2.754864-12.029572-8.172763-18.916731-4.407782-6.88716 3.856809-7.354475 13.774319-7.438132 26.814007-.275487 9.366537-8.080934 35.069261-3.397666 33.792997 5.693385 10.192996 19.467704-4.59144 29.660701-19.375876z" fill="url(#u)"/><path d="m47.0600529 234.02322c-34.8949416-22.589883-18.5494163-40.403502-13.3151751-33.884835 6.3361868-4.59144 6.4280156-13.407004 14.2334631-12.580545 7.8054474.826459 12.3968871 10.468483 17.6311284 22.406226 3.8568093 8.540078 17.2638132 19.926848 16.3536965 29.753529-1.2856032 11.570428-19.7431907 3.948638-34.8031129-5.693385z" fill="url(#v)"/><path d="m199.587679 188.843453c-2.754863 4.775098-13.957976 12.405059-21.396109 10.284835-7.621789-1.928404-11.111284-12.672373-9.550194-30.753407 1.377432-9.182879 9.550194-9.643023 19.835019-5.050584 10.927627 4.958755 14.335292 9.18288 11.111284 15.519066z" fill="#000"/><path d="m192.057718 186.180418c-1.744747 3.405837-9.09105 8.540078-14.233463 7.162646-5.142412-1.377432-7.713618-8.815564-6.887159-14.41712.73463-6.336187 6.244358-6.703502 13.223346-3.581323 7.529961 3.489494 9.91751 6.428015 7.897276 10.835797z" fill="url(#w)"/><path d="m97.1067455 66.3438435c3.6731515-3.3976654 12.5805445-13.7743191 29.4770435-2.9385214 3.122179 2.0302335 5.693386 2.303891 11.662357 4.7750973 12.029572 4.9587548 6.336187 16.896498-6.519844 30.9369649-5.509728 1.7447471-10.468483 8.4482491-30.385992 7.8054475-8.540078-.459144-10.743969-6.0607004-15.9782106-9.0910506-9.2747081-5.2342412-10.65214-12.4050583-5.6015564-16.0700389 5.0505837-3.7649805 6.9789884-5.1424124 7.3464035-5.4178988z" fill="url(#x)" stroke="#e68c3f" stroke-width="3.75"/><path d="m138.429703 75.9858658c-5.050584.2754864-15.97821 11.3031129-27.45681 11.3031129-11.4785988 0-18.3657584-10.6521401-30.1105055-10.6521401" stroke="#e68c3f" stroke-width="2.5"/><path d="m102.800131 65.4355546c1.836576-1.6529183 7.62179-6.1535292 15.24358-1.5610895 1.652918.9182879 3.405836 1.9284046 5.693385 3.4058365 4.866926 2.8466926 2.479377 6.9789884-3.397666 9.5501946-2.664035 1.1019455-7.070817 3.4894942-10.376653 3.4058366-3.673152-.3673152-6.15353-2.7548639-8.540078-4.3159533-4.4996111-2.9385214-4.2241247-5.4178989-2.1130624-7.3464035 1.5610894-1.4692607 3.4058364-2.8466927 3.4894944-2.9385214z" fill="url(#y)"/></g></svg>