<svg viewBox="0 0 32 32" xmlns="http://www.w3.org/2000/svg"><g fill="#4dabcf"><path d="m14.048 7.689-4.643-2.362-5.096 2.563 4.769 2.413z"/><path d="m16.177 8.771 4.868 2.476-5.051 2.556-4.776-2.417z"/><path d="m22.678 5.363 5.001 2.527-4.472 2.263-4.879-2.479z"/><path d="m20.526 4.274-4.503-2.274-4.453 2.239 4.639 2.358z"/><path d="m17.006 23.809v6.191l5.454-2.742-.006-6.194z"/><path d="m22.452 18.903-.006-6.129-5.44 2.725v6.131z"/><path d="m29 17.754v6.215l-4.652 2.339-.003-6.186z"/><path d="m29 15.581v-6.09l-4.661 2.335.004 6.141z"/></g><path d="m15.08 15.5-3.674-1.861v8.045s-4.493-9.634-4.906-10.499a.9.9 0 0 0 -.331-.264c-.808-.421-3.169-1.631-3.169-1.631v14.21l3.266 1.76v-7.428s4.445 8.607 4.49 8.7a4.026 4.026 0 0 0 .968 1.32c.635.423 3.357 2.073 3.357 2.073z" fill="#4d77cf"/></svg>